<svg width="22" height="20" viewBox="0 0 22 20" fill="none" xmlns="http://www.w3.org/2000/svg">
<path d="M8.4019e-05 10.1C8.40674e-05 9.54625 0.342089 9.08864 0.785817 9.01621L0.909175 9.00623L19.091 9.00623C19.5931 9.00623 20.0001 9.49592 20.0001 10.1C20.0001 10.6537 19.6581 11.1113 19.2144 11.1837L19.091 11.1937L0.909175 11.1937C0.407098 11.1937 8.39661e-05 10.704 8.4019e-05 10.1Z" fill="#626262"/>
<path d="M11.2077 2.08946C10.7797 1.66325 10.7782 0.970728 11.2044 0.542673C11.5919 0.153532 12.1994 0.116924 12.6283 0.433706L12.7512 0.539341L21.5741 9.32434C21.9644 9.71297 21.9999 10.3227 21.6806 10.7516L21.5742 10.8744L12.7513 19.6609C12.3232 20.0871 11.6307 20.0857 11.2045 19.6577C10.817 19.2686 10.7829 18.6608 11.1015 18.2333L11.2077 18.1109L19.2519 10.099L11.2077 2.08946Z" fill="#626262"/>
</svg>
