<svg width="46" height="25" viewBox="0 0 46 25" fill="none" xmlns="http://www.w3.org/2000/svg">
<path fill-rule="evenodd" clip-rule="evenodd" d="M32.2745 0.13633C32.0576 0.226334 31.8606 0.358244 31.6947 0.524505C31.5285 0.690347 31.3966 0.887359 31.3066 1.10426C31.2166 1.32116 31.1702 1.55368 31.1702 1.78852C31.1702 2.02335 31.2166 2.25587 31.3066 2.47277C31.3966 2.68967 31.5285 2.88669 31.6947 3.05253L39.3602 10.7151H2.51531C2.04181 10.7151 1.5877 10.9032 1.25289 11.238C0.918077 11.5728 0.72998 12.0269 0.72998 12.5004C0.72998 12.9739 0.918077 13.4281 1.25289 13.7629C1.5877 14.0977 2.04181 14.2858 2.51531 14.2858H39.3603L31.6947 21.9484C31.3595 22.2836 31.1712 22.7383 31.1712 23.2124C31.1712 23.6865 31.3595 24.1412 31.6947 24.4764C32.03 24.8117 32.4846 25 32.9587 25C33.4328 25 33.8875 24.8117 34.2228 24.4764L44.9347 13.7645C45.101 13.5986 45.2329 13.4016 45.3229 13.1847C45.4129 12.9678 45.4592 12.7353 45.4592 12.5005C45.4592 12.2656 45.4129 12.0331 45.3229 11.8162C45.2329 11.5993 45.101 11.4023 44.9347 11.2365L34.2228 0.524505C34.0569 0.358244 33.8599 0.226334 33.643 0.13633C33.4261 0.046327 33.1936 0 32.9587 0C32.7239 0 32.4914 0.046327 32.2745 0.13633Z" fill="#48B84A"/>
</svg>
