<svg width="32" height="17" viewBox="0 0 32 17" fill="none" xmlns="http://www.w3.org/2000/svg">
<path opacity="0.5" fill-rule="evenodd" clip-rule="evenodd" d="M8.08726 0.916142C8.2203 0.971349 8.34115 1.05226 8.44287 1.15424C8.54485 1.25597 8.62576 1.37681 8.68097 1.50985C8.73618 1.64289 8.76459 1.78552 8.76459 1.92956C8.76459 2.0736 8.73618 2.21623 8.68097 2.34927C8.62576 2.48231 8.54485 2.60316 8.44287 2.70488L3.74102 7.40496H30.6348C30.9252 7.40496 31.2037 7.52033 31.4091 7.7257C31.6145 7.93107 31.7299 8.20961 31.7299 8.50004C31.7299 8.79048 31.6145 9.06902 31.4091 9.27438C31.2037 9.47975 30.9252 9.59513 30.6348 9.59513H3.74096L8.44287 14.2953C8.6485 14.5009 8.76402 14.7798 8.76402 15.0706C8.76402 15.3614 8.6485 15.6403 8.44287 15.8459C8.23724 16.0515 7.95835 16.1671 7.66755 16.1671C7.37675 16.1671 7.09786 16.0515 6.89223 15.8459L0.321716 9.2754C0.219736 9.17367 0.138824 9.05283 0.0836182 8.91978C0.0284119 8.78674 -5.72205e-06 8.64412 -5.72205e-06 8.50008C-5.72205e-06 8.35603 0.0284119 8.21341 0.0836182 8.08036C0.138824 7.94732 0.219736 7.82648 0.321716 7.72475L6.89223 1.15424C6.99395 1.05226 7.1148 0.971349 7.24784 0.916142C7.38088 0.860936 7.52351 0.83252 7.66755 0.83252C7.81159 0.83252 7.95422 0.860936 8.08726 0.916142Z" fill="#48B84A"/>
</svg>
