<svg width="105" height="105" viewBox="0 0 105 105" fill="none" xmlns="http://www.w3.org/2000/svg">
<g filter="url(#filter0_d_19_580)">
<circle cx="52.4995" cy="39.5015" r="34.4995" fill="white"/>
</g>
<path d="M53.953 21.1125C50.4796 21.675 48.2999 23.9039 47.646 27.5742C47.5616 28.0664 47.5264 28.8961 47.5053 31.35L47.4702 34.5H44.8757H42.2811V37.6992V40.8984H44.8827H47.4843V48.9492V57H50.7186H53.953V48.9492V40.8984H56.4491C57.8202 40.8984 58.9452 40.8773 58.9452 40.8562C58.9452 40.8352 59.121 39.4289 59.3319 37.7344C59.5428 36.0398 59.7186 34.6195 59.7186 34.5773C59.7186 34.5211 58.8468 34.5 56.8288 34.5H53.946L53.9671 31.6664C53.9882 29.1633 54.0022 28.8047 54.1147 28.5234C54.3889 27.8203 54.8038 27.4336 55.5491 27.1664C55.9147 27.0328 56.1608 27.0187 58.1225 26.9906L60.2811 26.9625V24.1219C60.2811 21.907 60.26 21.2672 60.1968 21.2461C59.9577 21.1687 58.0944 21.0633 56.4491 21.0352C55.0218 21.007 54.4733 21.0281 53.953 21.1125Z" fill="#48B74A"/>
<defs>
<filter id="filter0_d_19_580" x="0" y="0.00195312" width="104.999" height="104.999" filterUnits="userSpaceOnUse" color-interpolation-filters="sRGB">
<feFlood flood-opacity="0" result="BackgroundImageFix"/>
<feColorMatrix in="SourceAlpha" type="matrix" values="0 0 0 0 0 0 0 0 0 0 0 0 0 0 0 0 0 0 127 0" result="hardAlpha"/>
<feOffset dy="13"/>
<feGaussianBlur stdDeviation="9"/>
<feColorMatrix type="matrix" values="0 0 0 0 0.0658854 0 0 0 0 0.0730469 0 0 0 0 0.1375 0 0 0 0.08 0"/>
<feBlend mode="normal" in2="BackgroundImageFix" result="effect1_dropShadow_19_580"/>
<feBlend mode="normal" in="SourceGraphic" in2="effect1_dropShadow_19_580" result="shape"/>
</filter>
</defs>
</svg>
