<svg width="42" height="42" viewBox="0 0 42 42" fill="none" xmlns="http://www.w3.org/2000/svg">
<path d="M31.7451 37.8351C30.2051 38.2901 28.3851 38.5001 26.2501 38.5001H15.7501C13.6151 38.5001 11.7951 38.2901 10.2551 37.8351C10.6401 33.2851 15.3126 29.6975 21.0001 29.6975C26.6876 29.6975 31.3601 33.2851 31.7451 37.8351Z" stroke="white" stroke-width="1.5" stroke-linecap="round" stroke-linejoin="round"/>
<path d="M26.25 3.50024H15.75C7 3.50024 3.5 7.00024 3.5 15.7502V26.2502C3.5 32.8652 5.495 36.4877 10.255 37.8352C10.64 33.2852 15.3125 29.6977 21 29.6977C26.6875 29.6977 31.36 33.2852 31.745 37.8352C36.505 36.4877 38.5 32.8652 38.5 26.2502V15.7502C38.5 7.00024 35 3.50024 26.25 3.50024ZM21 24.7977C17.535 24.7977 14.735 21.9803 14.735 18.5153C14.735 15.0503 17.535 12.2502 21 12.2502C24.465 12.2502 27.265 15.0503 27.265 18.5153C27.265 21.9803 24.465 24.7977 21 24.7977Z" stroke="white" stroke-width="1.5" stroke-linecap="round" stroke-linejoin="round"/>
<path d="M27.2649 18.5153C27.2649 21.9803 24.4649 24.7977 20.9999 24.7977C17.5349 24.7977 14.7349 21.9803 14.7349 18.5153C14.7349 15.0503 17.5349 12.2502 20.9999 12.2502C24.4649 12.2502 27.2649 15.0503 27.2649 18.5153Z" fill="#46B249" stroke="#46B249" stroke-width="1.5" stroke-linecap="round" stroke-linejoin="round"/>
</svg>
