<svg width="105" height="105" viewBox="0 0 105 105" fill="none" xmlns="http://www.w3.org/2000/svg">
<g filter="url(#filter0_d_19_605)">
<circle cx="52.4995" cy="39.4995" r="34.4995" transform="rotate(90 52.4995 39.4995)" fill="#48B74A"/>
</g>
<path d="M42.4129 23.7139C41.6522 23.8795 41.5111 23.9899 39.5297 25.9775C37.7997 27.7013 37.6648 27.8547 37.4623 28.2841C37.1249 28.9957 37.0452 29.376 37.0084 30.3821C36.9716 31.3943 37.0513 32.063 37.3581 33.2285C39.2046 40.2403 47.4616 49.4666 55.3629 53.3437C57.7063 54.4908 59.4792 54.9939 61.2214 55C62.2888 55 62.8286 54.8896 63.5709 54.5276C64.0494 54.2945 64.1721 54.178 65.8959 52.4603C67.8222 50.5341 67.9326 50.393 68.178 49.5771C68.3068 49.1477 68.3068 48.3379 68.178 47.9085C67.9571 47.1723 67.8651 47.0619 65.4297 44.6142C64.1476 43.3198 62.9268 42.142 62.7244 41.9948C61.5097 41.1298 59.9454 41.2525 58.9271 42.2892C58.6204 42.6021 58.4977 42.7861 58.2891 43.283C58.1419 43.6143 57.9517 43.9885 57.8597 44.1112C57.2708 44.9087 56.142 45.4117 55.1789 45.3136C53.7434 45.1602 51.6024 43.8597 49.7866 42.0439C47.5905 39.8477 46.2961 37.3203 46.6089 35.848C46.7562 35.1609 47.2408 34.4432 47.8113 34.0628C47.9463 33.9647 48.2407 33.8113 48.4616 33.7193C49.0996 33.4494 49.2529 33.3574 49.5535 33.0997C50.5718 32.2102 50.7927 30.5416 50.0504 29.3576C49.8357 29.008 45.6029 24.7322 45.0876 24.3335C44.6766 24.0206 44.1367 23.7752 43.6521 23.6893C43.192 23.6034 42.8853 23.6096 42.4129 23.7139Z" fill="white"/>
<defs>
<filter id="filter0_d_19_605" x="-6.10352e-05" y="0" width="104.999" height="104.999" filterUnits="userSpaceOnUse" color-interpolation-filters="sRGB">
<feFlood flood-opacity="0" result="BackgroundImageFix"/>
<feColorMatrix in="SourceAlpha" type="matrix" values="0 0 0 0 0 0 0 0 0 0 0 0 0 0 0 0 0 0 127 0" result="hardAlpha"/>
<feOffset dy="13"/>
<feGaussianBlur stdDeviation="9"/>
<feColorMatrix type="matrix" values="0 0 0 0 0.0658854 0 0 0 0 0.0730469 0 0 0 0 0.1375 0 0 0 0.08 0"/>
<feBlend mode="normal" in2="BackgroundImageFix" result="effect1_dropShadow_19_605"/>
<feBlend mode="normal" in="SourceGraphic" in2="effect1_dropShadow_19_605" result="shape"/>
</filter>
</defs>
</svg>
