<svg width="42" height="42" viewBox="0 0 42 42" fill="none" xmlns="http://www.w3.org/2000/svg">
<path d="M31.7451 37.8348C30.2051 38.2898 28.3851 38.4998 26.2501 38.4998H15.7501C13.6151 38.4998 11.7951 38.2898 10.2551 37.8348C10.6401 33.2848 15.3126 29.6973 21.0001 29.6973C26.6876 29.6973 31.3601 33.2848 31.7451 37.8348Z" stroke="white" stroke-width="1.5" stroke-linecap="round" stroke-linejoin="round"/>
<path d="M26.25 3.5H15.75C7 3.5 3.5 7 3.5 15.75V26.25C3.5 32.865 5.495 36.4875 10.255 37.835C10.64 33.285 15.3125 29.6974 21 29.6974C26.6875 29.6974 31.36 33.285 31.745 37.835C36.505 36.4875 38.5 32.865 38.5 26.25V15.75C38.5 7 35 3.5 26.25 3.5ZM21 24.7975C17.535 24.7975 14.735 21.98 14.735 18.515C14.735 15.05 17.535 12.25 21 12.25C24.465 12.25 27.265 15.05 27.265 18.515C27.265 21.98 24.465 24.7975 21 24.7975Z" stroke="white" stroke-width="1.5" stroke-linecap="round" stroke-linejoin="round"/>
<path d="M27.2649 18.515C27.2649 21.98 24.4649 24.7975 20.9999 24.7975C17.5349 24.7975 14.7349 21.98 14.7349 18.515C14.7349 15.05 17.5349 12.25 20.9999 12.25C24.4649 12.25 27.2649 15.05 27.2649 18.515Z" fill="#46B249" stroke="#46B249" stroke-width="1.5" stroke-linecap="round" stroke-linejoin="round"/>
</svg>
