<svg width="106" height="105" viewBox="0 0 106 105" fill="none" xmlns="http://www.w3.org/2000/svg">
<g filter="url(#filter0_d_19_597)">
<circle cx="53.4967" cy="39.5015" r="34.4995" fill="white"/>
</g>
<g clip-path="url(#clip0_19_597)">
<path d="M40.5596 23.5864C39.4879 23.8174 38.3905 24.6773 37.9028 25.6656C37.1584 27.1865 37.4408 28.9705 38.6087 30.1898C40.1489 31.7942 42.7094 31.7942 44.2432 30.1898C45.4175 28.9641 45.6935 27.1929 44.9427 25.672C44.6025 24.9789 43.8517 24.2281 43.1779 23.9072C42.3308 23.5029 41.4452 23.3938 40.5596 23.5864Z" fill="#48B74A"/>
<path d="M60.6843 33.9759C58.7013 34.3545 57.0135 35.4326 55.9739 36.992L55.6723 37.4413L55.6531 35.9139L55.6402 34.393H52.3674H49.0945V45.3667V56.3403H52.4957H55.8969V50.5776C55.8969 46.9967 55.9226 44.5453 55.9675 44.0896C56.1857 41.7473 57.0585 40.4446 58.7013 40.0082C59.2853 39.8478 60.2736 39.8157 60.8255 39.9376C61.8843 40.1622 62.4747 40.6178 62.9239 41.5419C63.5015 42.7484 63.5336 43.1719 63.5336 50.3786V56.3403H66.9348H70.336V49.7433C70.336 45.9699 70.3103 42.7676 70.2718 42.2543C70.0536 39.2317 69.3926 37.3065 68.0963 35.9203C67.2235 34.9898 66.062 34.3866 64.5026 34.0593C63.6619 33.886 61.4287 33.8411 60.6843 33.9759Z" fill="#48B74A"/>
<path d="M38.0375 34.4379C38.0118 34.4572 37.9925 39.3985 37.9925 45.4116V56.3403H41.4258H44.8591L44.8463 45.3795L44.827 34.4251L41.4515 34.4058C39.5969 34.3994 38.0567 34.4123 38.0375 34.4379Z" fill="#48B74A"/>
</g>
<defs>
<filter id="filter0_d_19_597" x="0.997162" y="0.00195312" width="104.999" height="104.999" filterUnits="userSpaceOnUse" color-interpolation-filters="sRGB">
<feFlood flood-opacity="0" result="BackgroundImageFix"/>
<feColorMatrix in="SourceAlpha" type="matrix" values="0 0 0 0 0 0 0 0 0 0 0 0 0 0 0 0 0 0 127 0" result="hardAlpha"/>
<feOffset dy="13"/>
<feGaussianBlur stdDeviation="9"/>
<feColorMatrix type="matrix" values="0 0 0 0 0.0658854 0 0 0 0 0.0730469 0 0 0 0 0.1375 0 0 0 0.08 0"/>
<feBlend mode="normal" in2="BackgroundImageFix" result="effect1_dropShadow_19_597"/>
<feBlend mode="normal" in="SourceGraphic" in2="effect1_dropShadow_19_597" result="shape"/>
</filter>
<clipPath id="clip0_19_597">
<rect width="32.8568" height="32.8568" fill="white" transform="translate(37.4791 23.4834)"/>
</clipPath>
</defs>
</svg>
