<svg width="106" height="105" viewBox="0 0 106 105" fill="none" xmlns="http://www.w3.org/2000/svg">
<g filter="url(#filter0_d_19_590)">
<circle cx="53.4976" cy="39.5015" r="34.4995" fill="white"/>
</g>
<g clip-path="url(#clip0_19_590)">
<path d="M47.0426 21.5018C44.6602 21.6029 43.0286 21.9061 41.6496 22.4981C40.3573 23.054 39.5921 23.5666 38.6391 24.5124C37.354 25.7902 36.5527 27.2269 36.0473 29.1545C35.5997 30.8583 35.4986 32.8148 35.4986 39.9116C35.4986 46.8929 35.5925 48.871 36.0112 50.5748C37.0508 54.8127 40.1552 57.5128 44.7251 58.1409C46.0319 58.3141 48.7753 58.3936 54.0167 58.3936C58.8898 58.3936 61.6982 58.3214 62.9616 58.1697C65.5462 57.8665 67.5677 56.9713 69.1632 55.4408C70.9609 53.7081 71.9138 51.6361 72.2604 48.6833C72.3975 47.5282 72.3975 32.1217 72.2604 31.0316C71.9788 28.8224 71.3218 27.0031 70.2822 25.6097C69.7696 24.9167 68.6723 23.8698 67.9864 23.4006C66.4342 22.3537 64.5644 21.7762 62.1025 21.5668C60.9402 21.473 49.0135 21.4224 47.0426 21.5018ZM62.6584 24.9889C64.716 25.2921 65.8711 25.8047 66.9829 26.9093C67.7049 27.6312 68.1019 28.2665 68.4557 29.2484C69.0477 30.9089 69.1054 31.7896 69.1054 39.9477C69.1054 44.6476 69.0766 46.9073 69.0116 47.6654C68.8022 50.1705 68.3041 51.5206 67.1345 52.7696C65.9144 54.0691 64.3911 54.7116 62.0303 54.9282C60.7525 55.0509 50.1903 55.1087 47.7573 55.0076C46.66 54.9643 45.5121 54.8921 45.2016 54.8488C43.8371 54.6611 42.516 54.1774 41.6929 53.5781C41.1804 53.1955 40.3573 52.3003 40.0541 51.7949C39.4477 50.7842 39.0867 49.3619 38.964 47.5571C38.7474 44.2794 38.8196 33.0314 39.065 31.1688C39.3249 29.2412 39.9242 27.9416 41.0576 26.8443C42.2994 25.6386 43.931 25.0538 46.4578 24.895C47.0065 24.8661 50.6957 24.8445 54.6664 24.8589C60.8247 24.8734 62.0014 24.8878 62.6584 24.9889Z" fill="#48B74A"/>
<path d="M62.875 28.0714C62.0592 28.4829 61.6693 29.1183 61.6693 30.0568C61.6693 30.7354 61.8282 31.1397 62.2902 31.6018C62.7523 32.0566 63.1566 32.2227 63.8352 32.2227C64.3189 32.2227 64.4777 32.1938 64.8243 32.0205C65.5535 31.6595 65.965 31.0314 66.0227 30.194C66.0733 29.4504 65.9072 29.0172 65.3946 28.4974C64.9181 28.0209 64.4994 27.8549 63.7991 27.8549C63.4093 27.8549 63.236 27.8982 62.875 28.0714Z" fill="#48B74A"/>
<path d="M52.2914 30.5692C50.3927 30.9158 48.7105 31.8038 47.2955 33.226C45.4184 35.0959 44.516 37.2834 44.516 39.9113C44.516 41.4996 44.812 42.8063 45.469 44.1203C47.4904 48.1343 51.9377 50.1919 56.2621 49.1162C57.966 48.6902 59.2799 47.9538 60.5578 46.7193C61.7057 45.6075 62.4781 44.3946 62.9619 42.9435C63.3084 41.8967 63.4383 41.0881 63.4383 39.9113C63.4383 38.7417 63.3084 37.9259 62.9691 36.9008C62.507 35.5146 61.8356 34.4172 60.7888 33.3343C59.3593 31.8615 57.5761 30.9086 55.6124 30.562C54.811 30.4249 53.0711 30.4249 52.2914 30.5692ZM55.1503 33.8758C58.4569 34.5111 60.6516 37.7599 60.0163 41.0881C59.6264 43.1023 58.1464 44.8928 56.2549 45.6219C55.3308 45.9829 54.7966 46.0695 53.7281 46.0262C52.97 45.9973 52.674 45.954 52.1759 45.7952C49.9884 45.1021 48.3929 43.3333 47.9453 41.1097C47.772 40.2506 47.837 38.915 48.0969 38.1064C48.7755 35.955 50.5876 34.3162 52.7462 33.883C53.3888 33.753 54.5006 33.753 55.1503 33.8758Z" fill="#48B74A"/>
</g>
<defs>
<filter id="filter0_d_19_590" x="0.998104" y="0.00195312" width="104.999" height="104.999" filterUnits="userSpaceOnUse" color-interpolation-filters="sRGB">
<feFlood flood-opacity="0" result="BackgroundImageFix"/>
<feColorMatrix in="SourceAlpha" type="matrix" values="0 0 0 0 0 0 0 0 0 0 0 0 0 0 0 0 0 0 127 0" result="hardAlpha"/>
<feOffset dy="13"/>
<feGaussianBlur stdDeviation="9"/>
<feColorMatrix type="matrix" values="0 0 0 0 0.0658854 0 0 0 0 0.0730469 0 0 0 0 0.1375 0 0 0 0.08 0"/>
<feBlend mode="normal" in2="BackgroundImageFix" result="effect1_dropShadow_19_590"/>
<feBlend mode="normal" in="SourceGraphic" in2="effect1_dropShadow_19_590" result="shape"/>
</filter>
<clipPath id="clip0_19_590">
<rect width="36.9639" height="36.9639" fill="white" transform="translate(35.4264 21.4297)"/>
</clipPath>
</defs>
</svg>
