<svg width="70" height="70" viewBox="0 0 70 70" fill="none" xmlns="http://www.w3.org/2000/svg">
<circle cx="35" cy="35" r="34" fill="#48B84A" stroke="black"/>
<path d="M22.982 32.842C22.982 33.5513 22.811 34.2163 22.469 34.837C22.1397 35.4577 21.614 35.958 20.892 36.338C20.1827 36.718 19.2833 36.908 18.194 36.908H15.971V42H13.311V28.738H18.194C19.22 28.738 20.094 28.9153 20.816 29.27C21.538 29.6247 22.0763 30.1123 22.431 30.733C22.7983 31.3537 22.982 32.0567 22.982 32.842ZM18.08 34.761C18.8147 34.761 19.3593 34.5963 19.714 34.267C20.0687 33.925 20.246 33.45 20.246 32.842C20.246 31.55 19.524 30.904 18.08 30.904H15.971V34.761H18.08ZM27.5306 39.891H31.9006V42H24.8706V28.738H27.5306V39.891ZM36.2133 28.738V36.946C36.2133 37.8453 36.4476 38.5357 36.9163 39.017C37.3849 39.4857 38.0436 39.72 38.8923 39.72C39.7536 39.72 40.4186 39.4857 40.8873 39.017C41.3559 38.5357 41.5903 37.8453 41.5903 36.946V28.738H44.2693V36.927C44.2693 38.0543 44.0223 39.0107 43.5283 39.796C43.0469 40.5687 42.3946 41.1513 41.5713 41.544C40.7606 41.9367 39.8549 42.133 38.8543 42.133C37.8663 42.133 36.9669 41.9367 36.1563 41.544C35.3583 41.1513 34.7249 40.5687 34.2563 39.796C33.7876 39.0107 33.5533 38.0543 33.5533 36.927V28.738H36.2133ZM51.4183 42.133C50.4937 42.133 49.6577 41.9747 48.9103 41.658C48.1757 41.3413 47.593 40.8853 47.1623 40.29C46.7317 39.6947 46.51 38.9917 46.4973 38.181H49.3473C49.3853 38.7257 49.5753 39.1563 49.9173 39.473C50.272 39.7897 50.7533 39.948 51.3613 39.948C51.982 39.948 52.4697 39.8023 52.8243 39.511C53.179 39.207 53.3563 38.8143 53.3563 38.333C53.3563 37.9403 53.236 37.6173 52.9953 37.364C52.7547 37.1107 52.4507 36.9143 52.0833 36.775C51.7287 36.623 51.2347 36.4583 50.6013 36.281C49.74 36.0277 49.037 35.7807 48.4923 35.54C47.9603 35.2867 47.498 34.913 47.1053 34.419C46.7253 33.9123 46.5353 33.241 46.5353 32.405C46.5353 31.6197 46.7317 30.9357 47.1243 30.353C47.517 29.7703 48.068 29.327 48.7773 29.023C49.4867 28.7063 50.2973 28.548 51.2093 28.548C52.5773 28.548 53.6857 28.8837 54.5343 29.555C55.3957 30.2137 55.8707 31.1383 55.9593 32.329H53.0333C53.008 31.873 52.8117 31.4993 52.4443 31.208C52.0897 30.904 51.6147 30.752 51.0193 30.752C50.5 30.752 50.082 30.885 49.7653 31.151C49.4613 31.417 49.3093 31.8033 49.3093 32.31C49.3093 32.6647 49.4233 32.9623 49.6513 33.203C49.892 33.431 50.1833 33.621 50.5253 33.773C50.88 33.9123 51.374 34.077 52.0073 34.267C52.8687 34.5203 53.5717 34.7737 54.1163 35.027C54.661 35.2803 55.1297 35.6603 55.5223 36.167C55.915 36.6737 56.1113 37.3387 56.1113 38.162C56.1113 38.8713 55.9277 39.53 55.5603 40.138C55.193 40.746 54.6547 41.2337 53.9453 41.601C53.236 41.9557 52.3937 42.133 51.4183 42.133Z" fill="white"/>
</svg>
