<svg width="170" height="118" viewBox="0 0 170 118" fill="none" xmlns="http://www.w3.org/2000/svg">
<path d="M83.3591 78.0111C83.3591 89.1555 79.4209 98.3333 70.888 106.2C63.0116 114.722 53.8224 118 43.3205 118C30.1931 118 19.6911 113.411 11.8147 103.578C3.93822 94.4 0 83.2556 0 70.1444C0 45.8889 20.3475 22.2889 61.6988 0L67.6062 9.17778C53.8224 20.9778 46.6023 30.1556 46.6023 37.3667C46.6023 39.3333 49.2278 41.9556 55.1351 43.9222C63.668 47.2 70.2317 50.4778 72.8571 53.1C80.0772 58.3444 83.3591 66.8667 83.3591 78.0111ZM170 78.0111C170 89.1555 166.062 98.3333 158.842 106.2C150.965 114.722 141.776 118 130.618 118C117.49 118 106.988 113.411 99.112 103.578C91.2355 94.4 87.2973 83.2556 87.2973 70.1444C87.2973 45.8889 107.645 22.2889 148.996 0L155.56 9.17778C141.12 20.9778 133.9 30.1556 133.9 37.3667C133.9 39.3333 137.181 41.9556 143.745 43.9222C152.278 47.2 158.185 50.4778 161.467 53.1C166.718 58.3444 170 66.8667 170 78.0111Z" fill="#233133"/>
</svg>
