<svg width="105" height="105" viewBox="0 0 105 105" fill="none" xmlns="http://www.w3.org/2000/svg">
<g filter="url(#filter0_d_19_585)">
<circle cx="52.4986" cy="39.4995" r="34.4995" fill="white"/>
</g>
<g clip-path="url(#clip0_19_585)">
<path d="M58.4663 26.2945C55.7569 26.7859 53.612 28.7648 52.9015 31.4476C52.7753 31.9058 52.7487 32.1781 52.7487 33.0945C52.7421 33.6988 52.762 34.3164 52.7952 34.4758L52.8417 34.7679L52.3968 34.7215C49.4683 34.4558 47.1042 33.7851 44.7468 32.5566C42.5687 31.4211 40.3042 29.6347 38.9163 27.9679C38.7038 27.7156 38.5046 27.523 38.4714 27.5363C38.4315 27.5496 38.2921 27.8152 38.1526 28.134C37.1964 30.2922 37.3757 32.7824 38.6175 34.7215C38.9827 35.2859 39.5804 35.9566 40.0651 36.3418L40.5632 36.7468H40.2909C39.7065 36.7468 38.4913 36.4148 37.8339 36.0828C37.6944 36.0097 37.5483 35.95 37.5218 35.95C37.4288 35.95 37.5483 37.1652 37.7011 37.7496C38.3054 40.0406 40.0054 41.8535 42.2698 42.6105C42.6417 42.7367 42.9073 42.8562 42.8542 42.8761C42.5554 42.989 41.5726 43.0687 40.8089 43.0422L39.9456 43.0023L39.9921 43.175C40.0651 43.4672 40.5565 44.3968 40.862 44.8218C42.0308 46.4687 43.9499 47.5976 45.8226 47.7504C46.1015 47.7703 46.3339 47.8101 46.3339 47.8433C46.3339 47.9496 44.8464 48.8726 43.9366 49.3242C41.8648 50.3535 39.8128 50.7984 37.4023 50.7453L36.1737 50.7187L36.519 50.9379C37.0304 51.2566 38.571 52.0336 39.2616 52.3191C42.987 53.8664 47.3366 54.2183 51.4405 53.3086C57.4769 51.9672 62.4507 47.7703 64.9608 41.8933C66.03 39.3832 66.5679 36.9129 66.6276 34.2566L66.6476 33.0613L67.1323 32.6761C67.7433 32.1781 68.4339 31.5207 68.9585 30.9363C69.4034 30.4316 70.0542 29.5617 70.0144 29.5285C70.0011 29.5152 69.8019 29.5816 69.5694 29.6746C68.6862 30.0332 66.6476 30.5511 66.3421 30.4914C66.2691 30.4781 66.3222 30.4117 66.5148 30.2855C67.0194 29.9535 67.9159 29.0304 68.2944 28.4593C68.6265 27.9679 69.1112 26.9918 69.1112 26.8191C69.1112 26.7793 68.7062 26.9519 68.2081 27.1976C67.305 27.6359 66.1296 28.0609 65.2132 28.28L64.7284 28.3929L64.3233 28.0211C62.7694 26.58 60.5315 25.9226 58.4663 26.2945Z" fill="#48B74A"/>
</g>
<defs>
<filter id="filter0_d_19_585" x="-0.000946045" y="0" width="104.999" height="104.999" filterUnits="userSpaceOnUse" color-interpolation-filters="sRGB">
<feFlood flood-opacity="0" result="BackgroundImageFix"/>
<feColorMatrix in="SourceAlpha" type="matrix" values="0 0 0 0 0 0 0 0 0 0 0 0 0 0 0 0 0 0 127 0" result="hardAlpha"/>
<feOffset dy="13"/>
<feGaussianBlur stdDeviation="9"/>
<feColorMatrix type="matrix" values="0 0 0 0 0.0658854 0 0 0 0 0.0730469 0 0 0 0 0.1375 0 0 0 0.08 0"/>
<feBlend mode="normal" in2="BackgroundImageFix" result="effect1_dropShadow_19_585"/>
<feBlend mode="normal" in="SourceGraphic" in2="effect1_dropShadow_19_585" result="shape"/>
</filter>
<clipPath id="clip0_19_585">
<rect width="34" height="34" fill="white" transform="translate(36.1073 23.001)"/>
</clipPath>
</defs>
</svg>
